# xmcd
#
# Track frame offsets:
#	150
#	11750
#	29995
#	43835
#	53947
#	70732
#	87982
#	106102
#	126267
#	136785
#	153807
#	170380
#	186750
#	206640
#
# Disc length: 3087 seconds
#
# Revision: 1
# Processed by: cddbd v1.5.2PL0 Copyright (c) Steve Scherf et al.
# Submitted via: audiograbber 1.83.01
#
DISCID=c00c0d0e
DTITLE=MORAES MOREIRA - NOVA SÉRIE
DYEAR=1900
DGENRE=
TTITLE0=LÁ VEM O BRASIL DESCENDO A LEDEIRA
TTITLE1=CARNAVAL DO BRASIL-BLOCO DO PRAZER-POMBO CORREIO-FESTA DO INTERIOR
TTITLE2=DAVILICENÇA
TTITLE3=O QUE É...O QUE É
TTITLE4=SINTONIA
TTITLE5=YOGUE DE OUVIDO
TTITLE6=TEM UM PÉ NO PELÔ
TTITLE7=ANA CAIANA
TTITLE8=FRUTA MULHER
TTITLE9=CARA E CORAÇÃO
TTITLE10=COISA ACESA
TTITLE11=BRASIL PANDEIRO
TTITLE12=BESTA É TU
TTITLE13=PRETA PRTINHA
EXTD=
EXTT0=
EXTT1=
EXTT2=
EXTT3=
EXTT4=
EXTT5=
EXTT6=
EXTT7=
EXTT8=
EXTT9=
EXTT10=
EXTT11=
EXTT12=
EXTT13=
PLAYORDER=
